<?xml version="1.0" encoding="UTF-8"?>
<svg width="126px" height="36px" viewBox="0 0 126 36" version="1.1" xmlns="http://www.w3.org/2000/svg" xmlns:xlink="http://www.w3.org/1999/xlink">
    <!-- Generator: Sketch 60 (88103) - https://sketch.com -->
    <title>dripp-logo</title>
    <desc>Created with Sketch.</desc>
    <g id="Page-1" stroke="none" stroke-width="1" fill="none" fill-rule="evenodd">
        <g id="default" transform="translate(-125.000000, -32.000000)" fill="#000000" fill-rule="nonzero">
            <g id="dripp-logo" transform="translate(125.000000, 32.000000)">
                <path d="M9.28,26.984 C10.944,26.984 12.496,26.6533333 13.936,25.992 C15.376,25.3306667 16.6346667,24.4453333 17.712,23.336 C18.7893333,22.2266667 19.632,20.9413333 20.24,19.48 C20.848,18.0186667 21.152,16.4986667 21.152,14.92 C21.152,13.32 20.8426667,11.7893333 20.224,10.328 C19.6053333,8.86666667 18.7573333,7.58666667 17.68,6.488 C16.6026667,5.38933333 15.344,4.50933333 13.904,3.848 C12.464,3.18666667 10.9226667,2.856 9.28,2.856 L9.28,2.856 L0,2.856 L0,26.984 L9.28,26.984 Z M7.712,21.672 L6.272,21.672 L6.272,8.168 L7.712,8.168 C8.77866667,8.168 9.73866667,8.33866667 10.592,8.68 C11.4453333,9.02133333 12.1653333,9.49066667 12.752,10.088 C13.3386667,10.6853333 13.792,11.4 14.112,12.232 C14.432,13.064 14.592,13.96 14.592,14.92 C14.592,15.9013333 14.4373333,16.8026667 14.128,17.624 C13.8186667,18.4453333 13.3706667,19.1546667 12.784,19.752 C12.1973333,20.3493333 11.4773333,20.8186667 10.624,21.16 C9.77066667,21.5013333 8.8,21.672 7.712,21.672 L7.712,21.672 Z M30.4,26.984 L30.4,19.944 C30.4,18.408 30.736,17.24 31.408,16.44 C32.08,15.64 33.088,15.24 34.432,15.24 C35.328,15.24 36.16,15.432 36.928,15.816 L36.928,15.816 L36.928,10.28 C36.6933333,10.2373333 36.4853333,10.216 36.304,10.216 L36.304,10.216 L35.808,10.216 C34.6133333,10.216 33.568,10.4773333 32.672,11 C31.776,11.5226667 31.0186667,12.2746667 30.4,13.256 L30.4,13.256 L30.4,10.568 L24.608,10.568 L24.608,26.984 L30.4,26.984 Z M42.4,7.528 C42.848,7.528 43.2693333,7.44266667 43.664,7.272 C44.0586667,7.10133333 44.4053333,6.86666667 44.704,6.568 C45.0026667,6.26933333 45.2373333,5.92266667 45.408,5.528 C45.5786667,5.13333333 45.664,4.712 45.664,4.264 C45.664,3.816 45.5786667,3.39466667 45.408,3 C45.2373333,2.60533333 45.0026667,2.25866667 44.704,1.96 C44.4053333,1.66133333 44.0586667,1.42666667 43.664,1.256 C43.2693333,1.08533333 42.848,1 42.4,1 C41.952,1 41.5306667,1.08533333 41.136,1.256 C40.7413333,1.42666667 40.3946667,1.66133333 40.096,1.96 C39.7973333,2.25866667 39.5626667,2.60533333 39.392,3 C39.2213333,3.39466667 39.136,3.816 39.136,4.264 C39.136,4.712 39.2213333,5.13333333 39.392,5.528 C39.5626667,5.92266667 39.7973333,6.26933333 40.096,6.568 C40.3946667,6.86666667 40.7413333,7.10133333 41.136,7.272 C41.5306667,7.44266667 41.952,7.528 42.4,7.528 Z M45.312,26.984 L45.312,10.568 L39.52,10.568 L39.52,26.984 L45.312,26.984 Z M55.072,35.176 L55.072,25.384 C56.4373333,26.792 58.144,27.496 60.192,27.496 C61.3653333,27.496 62.4533333,27.272 63.456,26.824 C64.4586667,26.376 65.328,25.7573333 66.064,24.968 C66.8,24.1786667 67.376,23.2613333 67.792,22.216 C68.208,21.1706667 68.416,20.04 68.416,18.824 C68.416,17.608 68.208,16.4666667 67.792,15.4 C67.376,14.3333333 66.7946667,13.4053333 66.048,12.616 C65.3013333,11.8266667 64.4213333,11.2026667 63.408,10.744 C62.3946667,10.2853333 61.3013333,10.056 60.128,10.056 C57.9946667,10.056 56.3093333,10.8346667 55.072,12.392 L55.072,12.392 L55.072,10.568 L49.28,10.568 L49.28,35.176 L55.072,35.176 Z M58.656,22.504 C58.144,22.504 57.6586667,22.4026667 57.2,22.2 C56.7413333,21.9973333 56.3413333,21.7306667 56,21.4 C55.6586667,21.0693333 55.392,20.68 55.2,20.232 C55.008,19.784 54.912,19.304 54.912,18.792 C54.912,18.28 55.0133333,17.7946667 55.216,17.336 C55.4186667,16.8773333 55.6853333,16.4773333 56.016,16.136 C56.3466667,15.7946667 56.736,15.528 57.184,15.336 C57.632,15.144 58.112,15.048 58.624,15.048 C59.1573333,15.048 59.6533333,15.1493333 60.112,15.352 C60.5706667,15.5546667 60.9706667,15.8266667 61.312,16.168 C61.6533333,16.5093333 61.9146667,16.9093333 62.096,17.368 C62.2773333,17.8266667 62.368,18.312 62.368,18.824 C62.368,19.3146667 62.2666667,19.784 62.064,20.232 C61.8613333,20.68 61.5946667,21.0746667 61.264,21.416 C60.9333333,21.7573333 60.544,22.024 60.096,22.216 C59.648,22.408 59.168,22.504 58.656,22.504 Z M77.504,35.176 L77.504,25.384 C78.8693333,26.792 80.576,27.496 82.624,27.496 C83.7973333,27.496 84.8853333,27.272 85.888,26.824 C86.8906667,26.376 87.76,25.7573333 88.496,24.968 C89.232,24.1786667 89.808,23.2613333 90.224,22.216 C90.64,21.1706667 90.848,20.04 90.848,18.824 C90.848,17.608 90.64,16.4666667 90.224,15.4 C89.808,14.3333333 89.2266667,13.4053333 88.48,12.616 C87.7333333,11.8266667 86.8533333,11.2026667 85.84,10.744 C84.8266667,10.2853333 83.7333333,10.056 82.56,10.056 C80.4266667,10.056 78.7413333,10.8346667 77.504,12.392 L77.504,12.392 L77.504,10.568 L71.712,10.568 L71.712,35.176 L77.504,35.176 Z M81.088,22.504 C80.576,22.504 80.0906667,22.4026667 79.632,22.2 C79.1733333,21.9973333 78.7733333,21.7306667 78.432,21.4 C78.0906667,21.0693333 77.824,20.68 77.632,20.232 C77.44,19.784 77.344,19.304 77.344,18.792 C77.344,18.28 77.4453333,17.7946667 77.648,17.336 C77.8506667,16.8773333 78.1173333,16.4773333 78.448,16.136 C78.7786667,15.7946667 79.168,15.528 79.616,15.336 C80.064,15.144 80.544,15.048 81.056,15.048 C81.5893333,15.048 82.0853333,15.1493333 82.544,15.352 C83.0026667,15.5546667 83.4026667,15.8266667 83.744,16.168 C84.0853333,16.5093333 84.3466667,16.9093333 84.528,17.368 C84.7093333,17.8266667 84.8,18.312 84.8,18.824 C84.8,19.3146667 84.6986667,19.784 84.496,20.232 C84.2933333,20.68 84.0266667,21.0746667 83.696,21.416 C83.3653333,21.7573333 82.976,22.024 82.528,22.216 C82.08,22.408 81.6,22.504 81.088,22.504 Z" id="Dripp"></path>
                <path d="M116.686327,1.38064637 C116.195491,-0.418102378 113.630036,-0.50185232 113.073673,1.38064637 C110.182436,11.2406395 104,13.9200126 104,20.8693828 C104,27.0218785 108.866327,32 114.88,32 C120.893673,32 125.76,27.0218785 125.76,20.8693828 C125.76,13.8850126 119.591164,11.2856395 116.686327,1.38064637 Z M114.56,27.52 C110.855,27.52 107.84,24.505 107.84,20.8 C107.84,20.2696 108.2696,19.84 108.8,19.84 C109.3304,19.84 109.76,20.2696 109.76,20.8 C109.76,23.4466 111.9134,25.6 114.56,25.6 C115.0904,25.6 115.52,26.0296 115.52,26.56 C115.52,27.0904 115.0904,27.52 114.56,27.52 Z" id="Shape"></path>
            </g>
        </g>
    </g>
</svg>